<?xml version="1.0" encoding="UTF-8"?><svg id="Layer_1" xmlns="http://www.w3.org/2000/svg" viewBox="0 0 611.61 611.61"><defs><style>.cls-1{fill:#333232;}.cls-2{fill:#fff;}.cls-3{fill:#333332;}.cls-4{fill:#f3725c;}</style></defs><circle class="cls-4" cx="305.8" cy="305.81" r="303.17"/><path class="cls-3" d="M305.8,611.61c-81.68,0-158.48-31.81-216.24-89.57C31.81,464.28,0,387.49,0,305.81S31.81,147.33,89.57,89.57C147.33,31.81,224.12,0,305.8,0s158.48,31.81,216.24,89.57c57.76,57.76,89.57,134.55,89.57,216.24s-31.81,158.48-89.57,216.24c-57.76,57.76-134.55,89.57-216.24,89.57ZM305.8,5.27c-80.27,0-155.75,31.26-212.51,88.02C36.53,150.06,5.27,225.53,5.27,305.81s31.26,155.75,88.02,212.51c56.76,56.76,132.23,88.02,212.51,88.02s155.75-31.26,212.51-88.02c56.76-56.76,88.02-132.23,88.02-212.51s-31.26-155.75-88.02-212.51C461.55,36.53,386.08,5.27,305.8,5.27Z"/><path class="cls-2" d="M111.4,262.83l-43.22-75.85c-.15-.14-.23-.39-.28-.72-.27-1.14.39-1.89,1.92-2.21l19.75-4.21c.73-.16,1.41-.1,1.99.15.59.26,1.01.66,1.25,1.21l21.05,40.67c.29.31.5.41.76.35.2-.05.36-.23.37-.58l2.18-45.64c.02-1.37.84-2.23,2.4-2.58l16.84-3.59c1.49-.32,2.56.15,3.24,1.37l21.62,40.55c.25.28.49.4.72.34.23-.05.39-.23.4-.58l1.79-45.55c-.03-.6.17-1.14.61-1.61.48-.47,1.02-.8,1.78-.96l19.19-4.12c.83-.17,1.54-.09,2.06.23.52.33.73.9.71,1.77l-6.04,86.23c-.12,1.39-.91,2.26-2.4,2.58l-18.79,4c-.73.16-1.4.12-1.99-.16-.62-.23-1.01-.65-1.25-1.2l-21.65-43.35c-.16-.39-.4-.54-.67-.48-.26.06-.42.29-.46.72l-.92,48.19c.01,1.36-.74,2.21-2.27,2.54l-17.47,3.74c-1.53.32-2.62-.08-3.23-1.23"/><path class="cls-3" d="M113.81,266.81c-2.07.03-3.78-.92-4.73-2.7l-43.09-75.63c-.48-.66-.63-1.38-.69-1.72-.31-1.43.11-2.5.51-3.14.69-1.08,1.85-1.81,3.45-2.15l19.75-4.21c1.23-.27,2.48-.17,3.59.31,1.2.54,2.08,1.4,2.58,2.5l17.53,33.87,1.82-38.06c.03-2.5,1.7-4.41,4.45-5.03l16.86-3.59c2.61-.57,4.83.4,6.09,2.67l18.1,33.95,1.49-37.9c-.04-1.27.42-2.45,1.32-3.41.95-.94,1.96-1.48,3.16-1.74l19.18-4.12c1.51-.31,2.88-.12,3.99.55.93.58,2.02,1.75,1.97,4.07v.14s-6.05,86.23-6.05,86.23c-.22,2.61-1.85,4.41-4.47,4.97l-18.8,4c-1.27.28-2.5.17-3.58-.32-1.18-.48-2.08-1.34-2.6-2.51l-17.91-35.87-.76,39.87c.02,2.55-1.6,4.47-4.34,5.06l-17.47,3.74c-.47.1-.92.15-1.36.16ZM113.69,261.54h0c.08,0,.21-.01.39-.05l17.46-3.74c.07-.02.13-.03.18-.05l.93-48.34c.17-1.83,1.38-2.77,2.45-3.03,1.52-.36,3.02.42,3.69,1.92l21.61,43.28.04.02s.08,0,.27-.04l18.81-4.01c.16-.04.26-.07.31-.1,0-.02,0-.07.01-.13l5.98-85.33-18.72,4.02c-.13.03-.23.06-.31.12l-1.79,45.53c-.05,1.51-1.03,2.73-2.45,3.05-.64.15-2.03.25-3.29-1.17l-.2-.23-.15-.27-21.62-40.55s-.04-.07-.06-.09c-.02.01-.13.02-.3.05l-16.85,3.59c-.14.03-.24.07-.31.1v.03s-2.18,45.64-2.18,45.64c-.05,1.48-1.02,2.71-2.43,3.03-.63.16-1.98.24-3.26-1.11l-.25-.27-.17-.33-21.06-40.69c-.08-.02-.19,0-.32.02l-19.19,4.1,42.75,75.03ZM112.35,221.51s0,.03,0,.05v-.05ZM159.74,211.41s0,.01,0,.02v-.02ZM186.6,161.82h0Z"/><path class="cls-2" d="M251.16,231c-6.34-1.33-11.64-4.07-15.92-8.15-4.29-4.08-7.14-9.3-8.57-15.65l-5.51-24.42c-1.38-6.2-1.01-12.02,1.12-17.49,2.13-5.48,5.76-10.19,10.92-14.14,5.2-3.94,11.55-6.76,19.15-8.47,7.57-1.71,14.61-1.89,21.02-.58,6.41,1.33,11.73,4.04,15.99,8.09,4.28,4.02,7.13,9.14,8.5,15.32l5.51,24.43c1.42,6.34,1.07,12.27-1.06,17.81-2.1,5.5-5.76,10.25-10.99,14.19-5.23,3.94-11.65,6.78-19.22,8.49-7.61,1.71-14.58,1.9-20.96.56M278.25,206.88c2.23-3.16,2.84-6.83,1.87-11.06l-5.68-25.29c-.93-4.13-3.06-7.19-6.42-9.12-3.33-1.95-7.29-2.41-11.75-1.4-4.39,1-7.71,3.09-9.9,6.28-2.16,3.19-2.84,6.87-1.91,11l5.71,25.29c.93,4.23,3.13,7.27,6.42,9.19,3.36,1.89,7.22,2.34,11.65,1.34,4.43-1,7.84-3.09,10.01-6.21"/><path class="cls-3" d="M261.3,234.49c-3.73.1-7.3-.2-10.68-.92-6.76-1.42-12.55-4.39-17.2-8.82-4.65-4.42-7.78-10.13-9.32-16.98l-5.51-24.42c-1.49-6.7-1.07-13.1,1.24-19.03,2.31-5.93,6.27-11.07,11.78-15.28,5.47-4.15,12.26-7.16,20.17-8.95,7.9-1.78,15.34-1.98,22.13-.59,6.85,1.42,12.66,4.37,17.28,8.77,4.65,4.36,7.77,9.97,9.26,16.66l5.51,24.42c1.53,6.82,1.14,13.32-1.17,19.33-2.27,5.96-6.26,11.13-11.86,15.35-5.52,4.16-12.32,7.18-20.23,8.96-3.93.89-7.74,1.38-11.39,1.48ZM263.34,143.89c-3.34.09-6.81.54-10.41,1.35-7.28,1.64-13.21,4.26-18.14,8-4.72,3.6-8.11,7.98-10.06,13-1.95,5.01-2.28,10.23-1,15.96l5.51,24.41c1.3,5.81,3.93,10.63,7.81,14.32,3.93,3.75,8.86,6.26,14.65,7.48h0c5.96,1.26,12.63,1.08,19.83-.55,7.17-1.62,13.3-4.32,18.21-8.02,4.8-3.62,8.2-8,10.11-13.03,1.96-5.1,2.27-10.42.95-16.29l-5.51-24.43c-1.26-5.64-3.86-10.34-7.73-13.98-3.9-3.72-8.85-6.22-14.72-7.43-3.01-.62-6.18-.88-9.5-.79ZM264.41,216.24c-3.32.09-6.37-.64-9.12-2.19-4.04-2.35-6.62-6.02-7.7-10.92l-5.71-25.28c-1.08-4.81-.31-9.2,2.3-13.06,2.59-3.75,6.46-6.22,11.5-7.37,5.17-1.16,9.76-.59,13.67,1.7,3.97,2.28,6.56,5.92,7.66,10.82l5.68,25.29c1.14,4.95.37,9.38-2.28,13.15-2.54,3.67-6.44,6.11-11.59,7.28-1.52.34-2.99.53-4.41.57ZM260.23,162.13c-1.08.03-2.21.18-3.39.44-3.76.85-6.48,2.56-8.31,5.2-1.77,2.62-2.27,5.54-1.51,8.92l5.71,25.29c.76,3.46,2.46,5.91,5.18,7.49,2.76,1.55,5.96,1.9,9.75,1.05,3.82-.86,6.65-2.59,8.42-5.14v-.02c1.8-2.53,2.27-5.46,1.47-8.96l-5.68-25.3c-.78-3.44-2.46-5.86-5.16-7.41-1.89-1.11-4.06-1.63-6.48-1.56Z"/><path class="cls-2" d="M401.3,156.76c.05.21.26.4.7.48,9.18,2.08,14.69,7.64,16.62,16.71,1.7,8.16-.26,14.91-5.87,20.28-5.67,5.37-13.77,9.17-24.29,11.4l-36.74,7.72c-.73.16-1.37.1-1.96-.22-.55-.3-.89-.79-1.02-1.45l-17.13-81.28c-.14-.67,0-1.25.37-1.75.4-.51.95-.86,1.68-1.02l35.58-7.49c11.47-2.42,20.54-2.36,27.26.17,6.65,2.51,10.89,7.97,12.68,16.38,1.66,7.99-.83,14.43-7.43,19.33-.39.26-.51.5-.46.75M358.44,141.49l3.13,14.92c.13.56.52.81,1.18.67l13.67-2.89c3.88-.82,6.68-2.17,8.46-4.04,1.77-1.86,2.35-4.08,1.8-6.71-.56-2.69-2-4.55-4.38-5.59-2.4-1.02-5.5-1.13-9.38-.32l-13.67,2.88c-.67.14-.94.52-.81,1.09M393.08,184c1.7-1.94,2.23-4.36,1.64-7.21-.56-2.77-1.98-4.7-4.32-5.78-2.38-1.09-5.51-1.23-9.29-.41l-14.86,3.13c-.66.14-.91.49-.81,1.05l3.35,15.82c.13.53.51.77,1.17.64l14.82-3.12c3.75-.8,6.49-2.17,8.29-4.11"/><path class="cls-3" d="M351.06,216.07c-.91.01-1.76-.2-2.56-.63-1.24-.68-2.05-1.8-2.35-3.24l-17.13-81.26c-.29-1.41,0-2.74.83-3.86.85-1.07,1.95-1.75,3.24-2.03l35.6-7.49c12.07-2.54,21.46-2.45,28.73.28,7.53,2.84,12.35,8.99,14.33,18.3,1.62,7.79-.26,14.35-5.59,19.57,8.09,2.89,13.13,8.82,15.02,17.69,1.89,9.07-.34,16.72-6.62,22.73-6.01,5.69-14.61,9.75-25.57,12.08l-36.75,7.72c-.41.09-.81.14-1.2.14ZM334.26,130.19l16.98,80.56,36.68-7.71c9.99-2.12,17.73-5.73,23.02-10.73,4.94-4.73,6.61-10.57,5.1-17.83-1.7-8.02-6.47-12.82-14.58-14.67-1.7-.33-2.53-1.51-2.75-2.52v-.07c-.25-1.3.32-2.55,1.51-3.37,5.73-4.28,7.81-9.72,6.37-16.65-1.6-7.53-5.21-12.26-11.03-14.45-6.21-2.33-14.88-2.35-25.79-.05l-35.54,7.48ZM369.69,193.91c-1.7.02-3.06-1.01-3.47-2.7l-3.37-15.88c-.36-2.07.82-3.75,2.84-4.18l14.87-3.13c4.34-.94,8.01-.74,10.93.6,3.07,1.41,5.08,4.06,5.81,7.65.76,3.65-.01,6.93-2.24,9.47l-.05.06c-2.2,2.38-5.37,3.98-9.67,4.9l-14.83,3.13c-.28.06-.55.09-.81.09ZM368.38,175.97l2.62,12.35,13.24-2.79c3.14-.67,5.45-1.78,6.88-3.3,1.12-1.3,1.44-2.86,1.02-4.91-.4-1.97-1.3-3.21-2.84-3.92-1.82-.83-4.47-.91-7.63-.23l-13.29,2.79ZM362.5,159.75c-1.7.02-3.08-1.02-3.48-2.73l-3.14-14.98c-.21-.95-.05-1.89.45-2.65.37-.57,1.08-1.3,2.42-1.57l13.65-2.87c4.44-.92,8.02-.77,10.95.48,3.16,1.38,5.2,3.97,5.93,7.48.73,3.52-.1,6.57-2.47,9.07-2.18,2.29-5.39,3.86-9.82,4.8l-13.67,2.89c-.27.06-.54.08-.81.09ZM361.38,142.65l2.42,11.52,12.07-2.56c3.31-.7,5.69-1.8,7.1-3.28,1.16-1.21,1.51-2.56,1.13-4.35-.39-1.88-1.27-3.02-2.86-3.72-1.85-.79-4.48-.84-7.79-.16l-12.08,2.54ZM359.81,142.98h0s0,0,0,0Z"/><path class="cls-2" d="M151.04,379.74c-6.25-1.3-11.42-3.91-15.53-7.83-4.11-3.92-6.76-8.86-8.02-14.83l-11.32-54.38c-.13-.66,0-1.22.38-1.73.41-.52.93-.85,1.69-1.01l18.38-3.84c.76-.14,1.37-.06,1.96.26.55.31.88.78,1.02,1.44l11.31,54.38c.81,3.83,2.74,6.64,5.87,8.45,3.05,1.78,6.73,2.22,11.07,1.31,4.22-.87,7.37-2.75,9.49-5.6,2.13-2.89,2.78-6.24,1.97-10.07l-11.32-54.38c-.13-.66,0-1.22.38-1.75.41-.51.93-.86,1.69-1l18.38-3.83c.77-.16,1.38-.06,1.96.24.55.32.88.79,1.01,1.46l11.32,54.38c1.27,5.97.8,11.55-1.34,16.78-2.13,5.22-5.85,9.68-11.01,13.35-5.17,3.68-11.47,6.28-18.9,7.84-7.43,1.55-14.27,1.66-20.45.36"/><path class="cls-3" d="M160.06,383.27c-3.33,0-6.52-.31-9.56-.95-6.71-1.4-12.36-4.26-16.8-8.5-4.46-4.26-7.41-9.71-8.78-16.2l-11.32-54.39c-.28-1.38,0-2.7.83-3.83.84-1.08,1.93-1.75,3.27-2.03l18.38-3.84c1.43-.26,2.64-.09,3.76.53,1.24.69,2.04,1.79,2.33,3.21l11.32,54.39c.66,3.09,2.17,5.29,4.61,6.71,2.5,1.46,5.5,1.78,9.21,1.01,3.58-.73,6.17-2.24,7.92-4.59,1.66-2.26,2.16-4.87,1.5-7.95l-11.32-54.39c-.28-1.38,0-2.69.82-3.82l.08-.1c.83-1.05,1.93-1.71,3.28-1.95l18.32-3.82c1.34-.28,2.55-.12,3.71.48l.12.06c1.21.7,2,1.82,2.27,3.22l11.32,54.35c1.36,6.41.87,12.57-1.47,18.31-2.3,5.64-6.31,10.52-11.93,14.51-5.43,3.86-12.12,6.64-19.89,8.27-4.15.86-8.15,1.3-11.97,1.31ZM118.83,302.53l11.24,54.02c1.16,5.5,3.54,9.91,7.26,13.46,3.72,3.55,8.51,5.96,14.25,7.15h0c5.81,1.23,12.32,1.11,19.36-.36,7.05-1.48,13.08-3.97,17.91-7.41,4.79-3.4,8.19-7.5,10.1-12.2,1.96-4.81,2.35-9.8,1.2-15.24l-11.25-54.03-18.26,3.81,11.25,54.02c.97,4.57.15,8.67-2.43,12.17-2.54,3.41-6.26,5.63-11.09,6.62-4.96,1.04-9.31.5-12.93-1.61-3.75-2.17-6.14-5.6-7.12-10.18l-11.24-54.04-18.26,3.82Z"/><path class="cls-2" d="M310.09,347.64l-23.25-28.25c-.29-.35-.7-.48-1.23-.36l-8.75,1.91c-.66.14-.91.49-.8,1.05l6.75,31.07c.14.65.01,1.24-.4,1.74-.37.51-.92.85-1.68,1.01l-18.35,3.99c-.72.15-1.37.09-1.96-.21-.52-.31-.89-.8-1.03-1.45l-17.61-81.19c-.14-.67-.01-1.23.36-1.76.41-.51.95-.87,1.69-1.01l41.03-8.9c6.23-1.35,11.89-1.4,17.07-.25,5.18,1.18,9.49,3.51,12.96,6.99,3.47,3.47,5.76,7.83,6.89,13.03,1.14,5.38.65,10.4-1.54,15.05-2.19,4.67-5.81,8.49-10.89,11.48-.58.39-.69.83-.28,1.32l25.09,28.63.52.91c.24,1.06-.42,1.75-1.91,2.08l-19.31,4.18c-1.42.33-2.52-.04-3.36-1.06M268.67,287.87l3.64,16.87c.14.58.52.78,1.18.63l15.33-3.34c3.48-.74,6.11-2.18,7.89-4.33,1.85-2.14,2.43-4.58,1.82-7.36-.62-2.85-2.19-4.92-4.75-6.13-2.49-1.26-5.5-1.5-8.97-.76l-15.33,3.35c-.67.14-.94.51-.81,1.07"/><path class="cls-3" d="M261.71,362.5c-.89.01-1.72-.18-2.49-.57l-.15-.08c-1.16-.68-1.97-1.8-2.27-3.14l-17.61-81.21c-.29-1.36-.02-2.69.78-3.83l.1-.13c.81-1.02,1.93-1.69,3.22-1.95l40.99-8.89c6.5-1.4,12.62-1.49,18.2-.24,5.64,1.29,10.43,3.88,14.25,7.7,3.8,3.81,6.36,8.63,7.6,14.34,1.27,5.98.68,11.61-1.73,16.73-2.15,4.57-5.57,8.45-10.19,11.53l23.87,27.23.85,1.48.09.39c.25,1.12.08,2.19-.5,3.11-.68,1.06-1.82,1.78-3.42,2.13l-19.32,4.18c-2.34.54-4.47-.16-5.95-1.96l-22.67-27.54-6.38,1.39,6.37,29.33c.31,1.41,0,2.8-.89,3.91-.54.72-1.52,1.61-3.21,1.98l-18.34,3.99c-.42.08-.82.13-1.22.13ZM244.42,276.74l17.45,80.46,18.26-3.97-6.66-30.69c-.39-2.07.78-3.76,2.84-4.19l8.72-1.9c1.49-.33,2.89.12,3.82,1.25l23.27,28.27c.16.2.22.28.73.16l18.34-3.97-24.12-27.52c-.71-.87-1-1.84-.86-2.78.1-.69.47-1.68,1.66-2.47l.13-.08c4.65-2.73,7.87-6.11,9.84-10.33,1.94-4.13,2.38-8.5,1.35-13.38-1.02-4.69-3.1-8.64-6.18-11.72-3.15-3.15-6.97-5.2-11.69-6.28-4.81-1.07-10.18-.99-15.93.25l-40.98,8.89ZM280.22,353.63h0s0,0,0,0ZM277.43,323.51h-.02s.01,0,.02,0ZM286.18,321.6h0s0,0,0,0ZM273.18,308.06c-1.68.02-3.03-1.01-3.43-2.71l-3.65-16.89c-.22-.93-.07-1.87.41-2.63.36-.57,1.07-1.31,2.42-1.6l15.32-3.34c4.1-.87,7.7-.54,10.72.98,3.2,1.52,5.35,4.27,6.14,7.93.79,3.63-.01,6.87-2.4,9.64-2.12,2.56-5.28,4.32-9.34,5.18l-15.32,3.34c-.3.07-.59.1-.88.1ZM271.62,289.03l2.9,13.43,13.75-3c2.92-.62,5.02-1.75,6.42-3.44,1.33-1.54,1.71-3.11,1.27-5.11-.45-2.09-1.5-3.46-3.31-4.31-1.98-1-4.41-1.18-7.3-.57l-13.74,3ZM270.05,289.38h0s0,0,0,0Z"/><path class="cls-2" d="M373.69,334.71c-.59-.3-.92-.8-1.06-1.45l-17.44-81.23c-.14-.67-.01-1.22.4-1.75.34-.51.92-.86,1.68-1.01l17.33-3.73c1.33-.28,2.42,0,3.31.84l40.79,38.87c.25.29.52.34.75.22.29-.15.38-.42.29-.84l-9.67-44.38c-.14-.66,0-1.22.36-1.73.37-.53.92-.86,1.69-1.03l18.06-3.88c.73-.16,1.41-.09,1.96.23.59.32.92.78,1.06,1.45l17.44,81.23c.14.65,0,1.25-.4,1.74-.37.53-.96.85-1.68,1.01l-17.33,3.72c-1.22.26-2.35-.01-3.27-.84l-40.93-39.46c-.26-.36-.56-.47-.89-.32-.3.15-.41.43-.32.84l9.95,45.1c.14.63.01,1.24-.36,1.74-.41.53-.96.85-1.69,1.01l-18.06,3.88c-.76.15-1.44.09-1.96-.22"/><path class="cls-3" d="M374.95,337.64c-1.12.01-1.96-.3-2.52-.61-1.24-.65-2.06-1.76-2.38-3.19l-17.44-81.25c-.3-1.38,0-2.71.83-3.84.73-1.05,1.9-1.78,3.31-2.06l17.29-3.72c2.17-.46,4.13.06,5.67,1.5l36.06,34.36-8.28-38c-.3-1.38-.02-2.72.81-3.85.74-1.04,1.84-1.74,3.26-2.05l18.05-3.88c1.37-.3,2.7-.12,3.83.52,1.19.64,2.02,1.75,2.33,3.18l17.44,81.23c.31,1.4,0,2.79-.89,3.9-.53.71-1.5,1.59-3.2,1.97l-17.35,3.73c-2.07.44-4.05-.08-5.59-1.46l-36.39-35.08,8.54,38.72c.3,1.4,0,2.78-.83,3.89-.8,1.03-1.88,1.69-3.22,1.99l-18.08,3.88c-.45.09-.87.13-1.25.13ZM357.84,251.85l17.28,80.5s.01,0,.02,0l17.96-3.86-9.86-44.71c-.34-1.57.31-3.04,1.67-3.75,1.48-.71,3.05-.34,4.07.88l40.8,39.33c.17.15.41.26.89.16l17.3-3.71-17.28-80.5-17.97,3.86,9.59,44.01c.35,1.59-.31,3.07-1.68,3.76-1.26.66-2.79.37-3.82-.73l-40.72-38.8c-.15-.14-.32-.3-.94-.17l-17.3,3.73ZM448.05,317.09h0s0,0,0,0ZM430.87,236.17h0s.01,0,0,0h0Z"/><path class="cls-2" d="M302.23,473.13c-6.23-1.27-11.4-3.89-15.59-7.86-4.15-3.96-6.9-9-8.24-15.09l-5.78-26.39c-1.33-6.05-.97-11.71,1.18-17,2.13-5.31,5.77-9.81,10.86-13.61,5.16-3.76,11.5-6.47,18.98-8.12,7.55-1.67,14.42-1.91,20.61-.75,6.22,1.15,11.38,3.58,15.48,7.24,4.09,3.66,6.75,8.35,8,14.05.18.73-.48,1.38-2.09,1.89l-18.07,5.12-.66.15c-1.32.29-2.07.23-2.16-.16l-.18-.73c-.83-3.82-2.78-6.6-5.92-8.31-3.1-1.71-6.85-2.09-11.22-1.13-4.3.95-7.5,2.85-9.63,5.76-2.12,2.91-2.78,6.24-1.97,9.98l6.1,27.74c.82,3.75,2.81,6.49,5.98,8.19,3.1,1.68,6.82,2.07,11.12,1.12,4.34-.96,7.6-2.87,9.73-5.71,2.1-2.86,2.73-6.18,1.91-9.92-.1-.49.04-.92.43-1.23.38-.35.97-.57,1.87-.68l18.62-3.19c1.64-.19,2.44-.16,2.53.1l.11.6c1.28,5.79.83,11.23-1.35,16.32-2.15,5.1-5.83,9.45-11,13.11-5.1,3.64-11.48,6.31-19.02,7.95-7.48,1.65-14.39,1.83-20.61.56"/><path class="cls-3" d="M311.9,476.59c-3.56.08-6.97-.21-10.2-.87-6.67-1.36-12.34-4.23-16.88-8.53-4.52-4.31-7.55-9.84-9-16.44l-5.78-26.39c-1.45-6.58-1.01-12.82,1.31-18.55,2.28-5.67,6.23-10.63,11.73-14.73,5.47-3.98,12.18-6.86,19.98-8.58,7.84-1.73,15.13-1.99,21.66-.77,6.65,1.24,12.29,3.88,16.75,7.86,4.49,4.01,7.46,9.21,8.82,15.45.19.75.54,3.57-3.88,4.96l-18.95,5.33c-3.97.86-5.03-.97-5.3-2.14l-.17-.7c-.68-3.15-2.19-5.3-4.62-6.62-2.52-1.4-5.68-1.69-9.4-.87-3.69.81-6.32,2.37-8.06,4.74-1.68,2.3-2.17,4.87-1.52,7.86l6.1,27.73c.65,3,2.18,5.1,4.65,6.44,2.54,1.38,5.67,1.67,9.3.87,3.7-.82,6.46-2.4,8.19-4.72,1.62-2.21,2.1-4.75,1.44-7.77-.3-1.48.18-2.88,1.29-3.8.79-.7,1.81-1.1,3.19-1.28l18.7-3.2c1.82-.21,4.55-.53,5.34,1.91l.09.34.11.6c1.38,6.21.87,12.24-1.52,17.83-2.32,5.48-6.32,10.27-11.9,14.22-5.37,3.83-12.1,6.65-19.98,8.38-3.98.88-7.82,1.36-11.5,1.44ZM315.21,386.25c-3.49.08-7.17.54-11.01,1.39-7.09,1.56-13.14,4.14-17.99,7.68-4.76,3.54-8.02,7.62-9.97,12.46-1.94,4.79-2.28,9.84-1.05,15.44l5.78,26.39c1.22,5.55,3.74,10.18,7.48,13.75,3.85,3.66,8.53,6.01,14.3,7.19,5.86,1.2,12.42,1.01,19.52-.55,7.19-1.57,13.26-4.1,18.06-7.53,4.77-3.38,8.17-7.41,10.1-11.99,1.81-4.23,2.3-8.62,1.47-13.38l-18.44,3.16c.6,4.01-.26,7.64-2.59,10.8-2.53,3.37-6.32,5.62-11.29,6.72-4.9,1.08-9.26.62-12.94-1.38-3.85-2.08-6.31-5.43-7.29-9.95l-6.1-27.73c-.98-4.49-.17-8.56,2.41-12.1,2.5-3.41,6.26-5.69,11.19-6.78,5.02-1.1,9.41-.63,13.07,1.4,3.44,1.88,5.77,4.84,6.91,8.82l.09-.02,17.94-5.09c-1.24-4.64-3.55-8.46-6.89-11.45-3.73-3.33-8.51-5.55-14.21-6.61-2.69-.5-5.55-.72-8.54-.65ZM332.72,440.42h0ZM327.28,411.9l.02.06s-.01-.04-.02-.06ZM325.53,410.3h0ZM345.14,406.14s.01.07.02.1c0-.03-.01-.07-.02-.1Z"/><path class="cls-2" d="M176.37,500.62c-6.22-1.32-11.38-3.97-15.54-7.97-4.12-3.98-6.84-9.05-8.14-15.15l-5.61-26.42c-1.29-6.06-.89-11.71,1.29-16.99,2.17-5.3,5.83-9.77,10.95-13.53,5.19-3.73,11.54-6.4,19.03-7.99,7.56-1.62,14.43-1.81,20.61-.62,6.21,1.2,11.35,3.65,15.43,7.34,4.07,3.69,6.7,8.4,7.9,14.1.18.73-.49,1.37-2.11,1.87l-18.1,5-.66.14c-1.33.28-2.07.22-2.16-.17l-.17-.73c-.8-3.83-2.74-6.62-5.86-8.35-3.09-1.73-6.83-2.13-11.21-1.21-4.3.92-7.52,2.8-9.67,5.7-2.14,2.9-2.83,6.22-2.03,9.97l5.92,27.78c.79,3.75,2.77,6.5,5.92,8.23,3.09,1.7,6.8,2.12,11.11,1.2,4.35-.93,7.62-2.82,9.77-5.64,2.12-2.84,2.77-6.16,1.97-9.9-.1-.49.05-.92.43-1.23.38-.35.97-.56,1.87-.67l18.64-3.07c1.64-.18,2.44-.15,2.52.12l.1.6c1.24,5.8.76,11.23-1.46,16.31-2.19,5.08-5.89,9.41-11.09,13.03-5.13,3.61-11.52,6.23-19.07,7.83-7.5,1.6-14.4,1.74-20.62.42"/><path class="cls-3" d="M186.02,504.14c-3.56.06-6.96-.26-10.19-.94-6.66-1.41-12.32-4.32-16.82-8.65-4.49-4.34-7.48-9.89-8.89-16.5l-5.61-26.43c-1.41-6.59-.93-12.83,1.43-18.54,2.32-5.66,6.3-10.59,11.83-14.65,5.49-3.94,12.23-6.78,20.04-8.45,7.85-1.68,15.14-1.89,21.66-.63,6.64,1.28,12.26,3.96,16.7,7.97,4.46,4.04,7.39,9.26,8.71,15.51.19.75.51,3.58-3.91,4.94l-18.98,5.2c-3.97.84-5.02-1-5.28-2.17l-.17-.7c-.66-3.16-2.15-5.31-4.58-6.65-2.51-1.41-5.67-1.72-9.39-.93-3.69.79-6.34,2.33-8.1,4.69-1.69,2.29-2.21,4.85-1.57,7.85l5.92,27.77c.63,3,2.14,5.12,4.61,6.47,2.53,1.39,5.66,1.71,9.29.93,3.7-.79,6.47-2.36,8.22-4.66,1.64-2.19,2.13-4.74,1.49-7.76-.29-1.48.2-2.88,1.31-3.79.8-.69,1.82-1.09,3.2-1.26l18.72-3.08c1.82-.2,4.56-.5,5.33,1.94l.08.34.1.6c1.34,6.22.79,12.24-1.64,17.82-2.35,5.47-6.39,10.23-11.99,14.14-5.4,3.8-12.14,6.57-20.04,8.24-3.98.85-7.83,1.3-11.51,1.36ZM189.93,413.83c-3.49.06-7.17.49-11.02,1.32-7.1,1.51-13.17,4.06-18.04,7.56-4.78,3.51-8.07,7.57-10.05,12.39-1.97,4.78-2.35,9.83-1.15,15.44l5.61,26.43c1.18,5.56,3.67,10.2,7.39,13.8,3.83,3.68,8.49,6.07,14.25,7.28,5.85,1.24,12.42,1.1,19.52-.42,7.2-1.52,13.29-4.01,18.11-7.41,4.79-3.35,8.22-7.35,10.18-11.92,1.84-4.22,2.35-8.6,1.56-13.37l-18.46,3.04c.57,4.01-.32,7.64-2.66,10.78-2.55,3.35-6.36,5.58-11.33,6.64-4.91,1.05-9.26.56-12.94-1.46-3.84-2.1-6.27-5.47-7.23-10l-5.92-27.77c-.95-4.5-.11-8.57,2.49-12.09,2.52-3.39,6.3-5.65,11.23-6.71,5.02-1.07,9.41-.56,13.06,1.49,3.43,1.9,5.73,4.88,6.85,8.87l.09-.02,17.97-4.97c-1.21-4.64-3.49-8.48-6.81-11.49-3.71-3.35-8.47-5.61-14.16-6.7-2.69-.52-5.54-.76-8.54-.71ZM207.07,468.11h0ZM201.83,439.56v.06s0-.04,0-.06ZM200.09,437.94h0ZM219.72,433.92s.01.07.02.1c0-.03-.01-.07-.02-.1Z"/><path class="cls-1" d="M560.01,367.81c-.35.96-1.12,1.5-1.93,2.06l-1.74,1.02c1.42.16,2.88.13,4.31.05.47-.03.98-.24,1.39-.21.19.01.32-.05.24.23-.12.45-1.83,2.33-2.27,2.73-3.37,3.02-8.09,3.88-12.5,3.55-.64-.05-4.05-.64-4.3-.48-1.1,2.45-1.93,5.12-3.35,7.41-1.06,1.69-2.31,2.66-4.01,3.67-.96,2.38-2.44,4.62-3.41,6.98-.69,1.69-.78,3.55-2.44,4.7-1.1.76-3.42,1.29-4.77,1.58-.64.14-2.8.65-3.28.57-.97-.17-1.4-1.29-1.92-1.84-.29-.3-.79-.45-1.12-.75-2.48-2.27-3.91-5.17-3.3-8.61.37-2.06,1.55-2.89.83-5.22-.47-1.53-1.12-1.11-2.48-.76-3.71.94-7.58,3.64-10.3,6.26,1.23,2.21,3.99,1.44,6.11,2.21,3.61,1.3,5,5.81,3.52,9.17-1,2.26-3.01,2.83-4.8,4.29s-3.29,3.28-4.54,5.15c-1.36,2.03-2.84,6.22-5.87,5.66-.51-.09-.69-.59-1.27-.23-.16.1-1.24,1.4-1.46,1.67-.78.98-1.29,2.08-2.2,2.95-1.54,1.47-7.03,4.89-9.07,4.89-.18,0-.38-.08-.56-.1-.54-.58,1.64-6.84,2.04-7.86.32-.8.64-1.61,1.02-2.39.15-.31,1.4-2.25,1.27-2.38-1.05.33-2.05.84-3.04,1.31-1.58.76-6.58,3.86-7.84,3.85-1.1,0-1.96-.4-3.29-.21-3.62.51-6.18,1.97-10.3,1.83-.39-.01-2.05-.11-2.12-.34-.09-.28.98-1.99,1.22-2.35,1.12-1.71,2.93-3.73,4.45-5.08.49-.44,2.7-2.28,3.2-2.25,1.31.08,2.01,2.17,3.69,2.21,3.02.08,2.22-3.06,4.92-3.13,1.21-.03,1.49.25,2.86-.18.65-.21,3.05-1.46,3.42-1.94.43-.55-.17-1.46-.06-2.11-5.7,1.41-11.25,1.7-17.09,1.08-5.74-.61-11.18-2.58-16.97-2.61-4.14,4.24-10.06,5.28-14.89,8.62-2.01,1.39-2.35,2.39-3.41,4.54-2.28,4.62-3.94,9.51-5.81,14.31-.65,1.01-1.28.77-1.59,1.08-.21.21-1.95,4.65-2.4,5.5-1.18,2.24-5.09,8.28-7.33,9.21-1.63.68-1.56-.84-1.74-2.1-.34-2.42-.56-7.53.08-9.83.49-1.75,3.97-3.2,4.41-4.66.31-1.06-.12-1.8-.12-2.69,0-1.15,2.63-4.8,3.31-6.18.43-.87.82-1.79,1.18-2.69.87-2.2,1.74-4.68,1.81-7.04-3.05.56-5.94.3-8.96,1.2-5.17,1.55-7.49,5.03-9.56,9.7-.73,1.64-2.78,7.72-3.81,8.58-1.6,1.33-1.79,1.96-3.03,3.53-2.5,3.14-6.56,7.22-10.02,9.25-.72.42-2.68,1.63-3.1.44l-.52-4.92c-.04-2.9-.06-5.85.58-8.68,1.24-.69,5.82-.51,6.48-1.57.47-.76-.85-1.87-.99-2.62-.52-2.81,2.43-4.86,3.93-7.08,3.28-4.86,4.19-9.25,6.35-14.41,1.31-3.13,3.94-3.41,6.56-5.07,3.85-2.45,6.63-6.36,7.64-10.83-3.48,1.72-7.33,2.95-11.27,2.81-3.51-.12-6.8-1.61-10.37-1.27-1.01.1-4.32.89-5.1,1.42-.56.38-.05,1.59-.03,2.24.14,7.15-6.73,6.23-9.35,10.21-.26.39-.47,1.36-.52,1.41-.3.33-.57-.78-.61-.89-2.62-7.86,3.17-15.08,10.18-17.85,6.57-2.6,12.3.51,18.84-1.06,6-1.44,10.53-6.35,13.81-11.31,1.73-2.61,2.8-5.09,5.17-7.3,7.21-6.71,15.79-4.41,24.57-5.7,10.7-1.56,14.21-6.65,21.87-13.13,10.79-9.12,18.07-15.44,32.67-8.45.71.34,1.46.98,2.17,1.25.94.36,2.17.48,3.19.82,8.79,2.89,18.51,8.17,24.99,14.81.53.54,1.3,1.77,1.78,2.15.39.31,1.12.43,1.62.71,2.51,1.42,3.26,3.36,5.87,4.74,4.33,2.29,9.72,3.36,14.58,2.7ZM481.63,384.07c.14.19.18.17.31,0,1.06-1.08,2.22-2.18,3.6-2.84-1.5,2.79-2.86,5.82-2.72,9.08l.96-1.38c1.21-1.12,2.6-2.18,4.26-2.52-.35,1.23-.53,1.81-.08,3.06.8,2.22,3.23,3.57,5.15,4.7-2.7.72-5.61.28-8.16-.79,1.01,2.24,3.58,3.15,5.86,3.55,3.66.63,9.62.44,12.1,3.79,2.19,2.94-2.19,6.75-4.6,7.97-.39.2-2.51.9-2.57,1.08-.24.77,1.67,3.47,2.28,3.99.93.79,2.07-1.03,2.53-1.73,1.2-1.83,1.85-3.28,3.39-5.02.37-.42,2.54-2.43,2.58-2.6.09-.41-.42-.6-.61-.92-.42-.72-.66-1.47-.57-2.32.14-1.29.89-.42,1.46-.24.96.31,1.6.32,2.54-.1,1.12-.49,1.1-.94.88-2.07-.68-3.66-5.59-3.15-8.36-4.53-4.43-2.22-3.75-7.3-9.94-8.66-.11-.02-1.34.01-.96-.36.1-.09,2.28-.64,2.58-.68,1.06-.14,2.09-.07,3.12.2.43.11,2.12.99,2.28.87.13-.1,1.03-2.74,1.13-3.12.52-1.92.75-4.05.46-6.03-.18-1.22-.81-2.27-1.3-3.37,1.92-.11,3.57,1.33,4.53,2.86.48.77.68,1.66,1.25,2.3.36-1.96.73-4.02.44-6.02-.15-1.01-.86-1.9-.68-2.96,2.56-4.99,4.68-10.43,3.61-16.16.49.26.8.73,1.1,1.17,2.6,3.93,2.74,10.39,1.14,14.73-.2.54-.89,1.58-.95,1.99-.14.89.3,3.47.29,4.69,0,.51-.16.98-.12,1.48,2.37-2.98,3.66-6.89,4.34-10.62,2.09.05,4.17.44,6.08,1.3.24.11,1.65.78,1.71.85.23.25-.04.27-.21.33-1.79.71-3.3,1.05-5,2.13-.19.12-2.06,1.35-1.73,1.64,3.56-.69,7.76-1.97,11.25-.55-3.25,1.72-5.33,4.85-4.32,8.6.81,3.01,2.02,5.34,1.83,8.69-.1,1.71-.92,3.16-1.12,4.81,1.26-.41,2.71-1.45,3.9-.34-1.27.5-3.18,2.08-3.14,3.56.04,1.88,3.75.25,4.6-.21,1.41-.75,1.16-2.62,1.63-3.94.57-1.61,1.89-3.51,2.63-5.13.3-.65.59-1.31.81-1.99l-.03-.2c-.71-.36-1.83-1.42-1.49-2.29.18-.45,1.81-2.31,2.25-2.45.29-.09.21.04.24.22.18,1.09,0,2.42-.06,3.53,3.64-1.57,4.61-6.05,6.45-9.21.06-.55-.93-.7-1.41-.95-1.76-.9-1.94-.51-3.63-.91-1.4-.34-3.34-1.83-3.68-3.27-.05-.21,0-.54-.02-.78-.11-1.39-.1-2.93,1.31-3.64-.02,1.3.05,3.09,1.36,3.72-.15-.74-.28-1.51-.22-2.27.01-.16.24-1.41.27-1.49.06-.14,1.03-1.21,1.21-1.37,1.02-.86,2.27-1.1,3.57-1.19-.71-.64-1.8-.58-2.64-.91-1.31-.52-2.34-2.34-3.35-3.39-4.85-5.06-15.96-11.03-22.64-13.26-1.2-.4-2.79-.64-3.86-1.07-.93-.38-2.14-1.32-3.16-1.81-10.66-5.1-17.15-.51-25.25,6.09-4.1,3.34-7.9,7.13-12.02,10.41-5.21,4.15-8.92,5.16-15.56,5.85-11.52,1.19-18.56-1.17-25.02,10.45-3.96,7.11-5.84,15.28-10,22.3-.85.72-1.53,2.13-2.5,3.04-2.9,2.71-7.09,3.01-8.57,6.82-.6,1.53-.98,3.12-1.65,4.69-1.86,4.36-4.43,8.72-7.17,12.57-.02,1.23,1.14,1.72,2.07,2.18.44.22,1.33.91,1.87.55.29-.19,2.35-5.57,2.76-6.45,3.47-7.37,6.17-10.89,14.53-12.3,8.53-1.44,13.85-1.03,21.05-6.74,5.52-4.38,7.91-9.56,12.38-14.49,2.76-3.04,6.58-5.94,10.79-6.24-2.99,2.48-5.96,5.4-8.02,8.71-.14.22-.37.4-.33.68,2.6-1.23,5.4-1.6,8.16-.66,1.31.44,2.37,1.41,3.66,1.93,2.95,1.17,6.35.81,8.92-1.06.28-.4-1.07-.27-1.24-.3-1.74-.23-3.3-.66-5.11-.15.44-1.59,2.53-3.13,4.01-3.74,1.74-.72,5.82-1.01,6.94-2.27.54-.6.19-1.71.24-2.52M537.74,366.54c-2.24,2.32.9,5.24,2.89,6.37,3.69,2.09,9.41,2.93,13.49,1.75.22-.06,2.2-.77,1.98-.95-.15.02-.33-.02-.47.01-4.17-.5-10.12-1.28-12.97-4.73-1.12-1.35-1.31-3.37-3.61-3.11-.62.07-.91.24-1.31.66ZM497.33,405.08c.22.19,2.69-1.78,2.59-2.17-.28-.53-3.48-1.88-3.64-1.72.09,1.37.73,2.57,1.05,3.88Z"/><path class="cls-2" d="M481.62,384.09c.14.19.18.17.31,0,1.06-1.08,2.22-2.18,3.6-2.84-1.5,2.79-2.86,5.82-2.72,9.08l.96-1.38c1.21-1.12,2.6-2.18,4.26-2.52-.35,1.23-.53,1.81-.08,3.06.8,2.22,3.23,3.57,5.15,4.7-2.7.72-5.61.28-8.16-.79,1.01,2.24,3.58,3.15,5.86,3.55,3.66.63,9.62.44,12.1,3.79,2.19,2.94-2.19,6.75-4.6,7.97-.39.2-2.51.9-2.57,1.08-.24.77,1.67,3.47,2.28,3.99.93.79,2.07-1.03,2.53-1.73,1.2-1.83,1.85-3.28,3.39-5.02.37-.42,2.54-2.43,2.58-2.6.09-.41-.42-.6-.61-.92-.42-.72-.66-1.47-.57-2.32.14-1.29.89-.42,1.46-.24.96.31,1.6.32,2.54-.1,1.12-.49,1.1-.94.88-2.07-.68-3.66-5.59-3.15-8.36-4.53-4.43-2.22-3.75-7.3-9.94-8.66-.11-.02-1.34.01-.96-.36.1-.09,2.28-.64,2.58-.68,1.06-.14,2.09-.07,3.12.2.43.11,2.12.99,2.28.87.13-.1,1.03-2.74,1.13-3.12.52-1.92.75-4.05.46-6.03-.18-1.22-.81-2.27-1.3-3.37,1.92-.11,3.57,1.33,4.53,2.86.48.77.68,1.66,1.25,2.3.36-1.96.73-4.02.44-6.02-.15-1.01-.86-1.9-.68-2.96,2.56-4.99,4.68-10.43,3.61-16.16.49.26.8.73,1.1,1.17,2.6,3.93,2.74,10.39,1.14,14.73-.2.54-.89,1.58-.95,1.99-.14.89.3,3.47.29,4.69,0,.51-.16.98-.12,1.48,2.37-2.98,3.66-6.89,4.34-10.62,2.09.05,4.17.44,6.08,1.3.24.11,1.65.78,1.71.85.23.25-.04.27-.21.33-1.79.71-3.3,1.05-5,2.13-.19.12-2.06,1.35-1.73,1.64,3.56-.69,7.76-1.97,11.25-.55-3.25,1.72-5.33,4.85-4.32,8.6.81,3.01,2.02,5.34,1.83,8.69-.1,1.71-.92,3.16-1.12,4.81,1.26-.41,2.71-1.45,3.9-.34-1.27.5-3.18,2.08-3.14,3.56.04,1.88,3.75.25,4.6-.21,1.41-.75,1.16-2.62,1.63-3.94.57-1.61,1.89-3.51,2.63-5.13.3-.65.59-1.31.81-1.99l-.03-.2c-.71-.36-1.83-1.42-1.49-2.29.18-.45,1.81-2.31,2.25-2.45.29-.09.21.04.24.22.18,1.09,0,2.42-.06,3.53,3.64-1.57,4.61-6.05,6.45-9.21.06-.55-.93-.7-1.41-.95-1.76-.9-1.94-.51-3.63-.91-1.4-.34-3.34-1.83-3.68-3.27-.05-.21,0-.54-.02-.78-.11-1.39-.1-2.93,1.31-3.64-.02,1.3.05,3.09,1.36,3.72-.15-.74-.28-1.51-.22-2.27.01-.16.24-1.41.27-1.49.06-.14,1.03-1.21,1.21-1.37,1.02-.86,2.27-1.1,3.57-1.19-.71-.64-1.8-.58-2.64-.91-1.31-.52-2.34-2.34-3.35-3.39-4.85-5.06-15.96-11.03-22.64-13.26-1.2-.4-2.79-.64-3.86-1.07-.93-.38-2.14-1.32-3.16-1.81-10.66-5.1-17.15-.51-25.25,6.09-4.1,3.34-7.9,7.13-12.02,10.41-5.21,4.15-8.92,5.16-15.56,5.85-11.52,1.19-18.56-1.17-25.02,10.45-3.96,7.11-5.84,15.28-10,22.3-.85.72-1.53,2.13-2.5,3.04-2.9,2.71-7.09,3.01-8.57,6.82-.6,1.53-.98,3.12-1.65,4.69-1.86,4.36-4.43,8.72-7.17,12.57-.02,1.23,1.14,1.72,2.07,2.18.44.22,1.33.91,1.87.55.29-.19,2.35-5.57,2.76-6.45,3.47-7.37,6.17-10.89,14.53-12.3,8.53-1.44,13.85-1.03,21.05-6.74,5.52-4.38,7.91-9.56,12.38-14.49,2.76-3.04,6.58-5.94,10.79-6.24-2.99,2.48-5.96,5.4-8.02,8.71-.14.22-.37.4-.33.68,2.6-1.23,5.4-1.6,8.16-.66,1.31.44,2.37,1.41,3.66,1.93,2.95,1.17,6.35.81,8.92-1.06.28-.4-1.07-.27-1.24-.3-1.74-.23-3.3-.66-5.11-.15.44-1.59,2.53-3.13,4.01-3.74,1.74-.72,5.82-1.01,6.94-2.27.54-.6.19-1.71.24-2.52M537.73,366.56c-2.24,2.32.9,5.24,2.89,6.37,3.69,2.09,9.41,2.93,13.49,1.75.22-.06,2.2-.77,1.98-.95-.15.02-.33-.02-.47.01-4.17-.5-10.12-1.28-12.97-4.73-1.12-1.35-1.31-3.37-3.61-3.11-.62.07-.91.24-1.31.66ZM497.31,405.1c.22.19,2.69-1.78,2.59-2.17-.28-.53-3.48-1.88-3.64-1.72.09,1.37.73,2.57,1.05,3.88Z"/></svg>